HIERARCHY
ROOT Hips
{
	OFFSET 0.00000 0.00000 0.00000
	CHANNELS 6 Xposition Yposition Zposition Zrotation Yrotation Xrotation 
	JOINT LHipJoint
	{
		OFFSET 0 0 0
		CHANNELS 3 Zrotation Yrotation Xrotation
		JOINT LeftHip
		{
			OFFSET 1.81424 -1.42316 1.18090
			CHANNELS 3 Zrotation Yrotation Xrotation
			JOINT LeftKnee
			{
				OFFSET 2.15837 -5.93008 0.00000
				CHANNELS 3 Zrotation Yrotation Xrotation
				JOINT LeftAnkle
				{
					OFFSET 2.51759 -6.91701 0.00000
					CHANNELS 3 Zrotation Yrotation Xrotation
					JOINT LeftToe
					{
						OFFSET 0.18318 -0.50327 1.95113
						CHANNELS 3 Zrotation Yrotation Xrotation
						End Site
						{
							OFFSET 0.00000 -0.00000 1.01524
						}
					}
				}
			}
		}
	}
	JOINT RHipJoint
	{
		OFFSET 0 0 0
		CHANNELS 3 Zrotation Yrotation Xrotation
		JOINT RightHip
		{
			OFFSET -1.43917 -1.42316 1.18090
			CHANNELS 3 Zrotation Yrotation Xrotation
			JOINT RightKnee
			{
				OFFSET -2.25237 -6.18833 0.00000
				CHANNELS 3 Zrotation Yrotation Xrotation
				JOINT RightAnkle
				{
					OFFSET -2.46496 -6.77243 0.00000
					CHANNELS 3 Zrotation Yrotation Xrotation
					JOINT RightToe
					{
						OFFSET -0.26285 -0.72219 1.76148
						CHANNELS 3 Zrotation Yrotation Xrotation
						End Site
						{
							OFFSET -0.00000 -0.00000 0.95109
						}
					}
				}
			}
		}
	}
	JOINT lowerback
	{
		OFFSET 0 0 0
		CHANNELS 3 Zrotation Yrotation Xrotation
		JOINT Chest
		{
			OFFSET -0.08725 1.93754 -0.28890
			CHANNELS 3 Zrotation Yrotation Xrotation
			JOINT Chest2
			{
				OFFSET 0.01195 1.94849 0.05967
				CHANNELS 3 Zrotation Yrotation Xrotation
				JOINT lowerneck
				{
					OFFSET 0 0 0
					CHANNELS 3 Zrotation Yrotation Xrotation
					JOINT Neck
					{
						OFFSET 0.02762 1.60124 0.34160
						CHANNELS 3 Zrotation Yrotation Xrotation
						JOINT Head
						{
							OFFSET -0.04785 1.66713 -0.24070
							CHANNELS 3 Zrotation Yrotation Xrotation
							End Site
							{
								OFFSET -0.02188 1.68591 -0.11959
							}
						}
					}
				}
				JOINT LeftCollar
				{
					OFFSET 0 0 0
					CHANNELS 3 Zrotation Yrotation Xrotation
					JOINT LeftShoulder
					{
						OFFSET 2.59610 1.78696 -0.28854
CHANNELS 3 Zrotation Xrotation Yrotation
						JOINT LeftElbow
						{
OFFSET 0 -5.178530 0.000000
CHANNELS 3 Zrotation Xrotation Yrotation
							JOINT LeftWrist
							{
OFFSET 0 -3.403990 -0.000000
CHANNELS 3 Zrotation Xrotation Yrotation
								JOINT lhand
								{
									OFFSET 0 0 0
CHANNELS 3 Zrotation Xrotation Yrotation
									JOINT LFingers
									{
OFFSET 0 -0.708960 -0.000000
CHANNELS 3 Zrotation Xrotation Yrotation
										End Site
										{
OFFSET 0 -0.571590 -0.000000
										}
									}
								}
								JOINT LThumb
								{
OFFSET 0 0.000000 0.000000
CHANNELS 3 Zrotation Xrotation Yrotation
									End Site
									{
OFFSET 0 -0.580310 0.580310
									}
								}
							}
						}
					}
				}
				JOINT RightCollar
				{
					OFFSET 0 0 0
					CHANNELS 3 Zrotation Yrotation Xrotation
					JOINT RightShoulder
					{
						OFFSET -2.87749 1.55486 -0.73085
CHANNELS 3 Zrotation Xrotation Yrotation
						JOINT RightElbow
						{
OFFSET 0 -5.423510 -0.000000
CHANNELS 3 Zrotation Xrotation Yrotation
							JOINT RightWrist
							{
OFFSET 0 -3.420660 -0.000000
CHANNELS 3 Zrotation Xrotation Yrotation
								JOINT rhand
								{
									OFFSET 0 0 0
CHANNELS 3 Zrotation Xrotation Yrotation
									JOINT RFingers
									{
OFFSET 0 -0.743610 -0.000000
CHANNELS 3 Zrotation Xrotation Yrotation
										End Site
										{
OFFSET 0 -0.599520 -0.000000
										}
									}
								}
								JOINT RThumb
								{
OFFSET 0 0.000000 0.000000
CHANNELS 3 Zrotation Xrotation Yrotation
									End Site
									{
OFFSET 0 -0.608670 0.608670
									}
								}
							}
						}
					}
				}
			}
		}
	}
}
MOTION
Frames: 7
Frame Time: 0.008333333333333333
1.322285 11.726435 -0.893113 75.117595 -87.206917 -63.784634 0.000000 0.000000 0.000000 -0.448779 1.395720 -76.398487 23.090513 19.769483 99.069530 2.425489 -6.457266 -28.175591 0.504591 -4.553091 -12.638290 0.000000 0.000000 0.000000 -3.432534 -2.218658 -74.829598 -25.101597 -19.364250 105.069497 -4.641735 2.004292 -40.500046 -0.675766 5.256617 -14.641932 -5.814395 1.706523 18.949069 -0.221424 0.881448 -0.332194 2.824606 0.713125 -11.146455 2.804110 -0.279946 -28.410857 -3.352381 -0.745152 15.433421 -1.755150 -0.592012 9.444331 0.000000 0.000000 0.000000 131.466161 -52.962115 22.109057 26.297869 -37.501365 9.068404 -37.951902 -33.667780 11.546072 0.000000 0.000000 0.000000 -7.125000 0.000000 0.000000 -39.077127 13.932614 -39.604732 0.000000 0.000000 0.000000 -129.526987 -59.025888 -42.794581 -20.985613 -31.811567 -6.042365 42.369925 -8.329559 -13.269731 0.000000 0.000000 0.000000 7.125000 0.000000 0.000000 39.862319 9.998542 46.221957
1.322454 11.726305 -0.893139 75.092185 -87.207551 -63.757301 0.000000 0.000000 0.000000 -0.447937 1.394761 -76.403262 23.090739 19.769448 99.070190 2.425667 -6.443198 -28.178174 0.510372 -4.577272 -12.707071 0.000000 0.000000 0.000000 -3.431002 -2.219773 -74.834594 -25.101992 -19.364150 105.070690 -4.641605 2.003077 -40.499738 -0.675097 5.254052 -14.634597 -5.814985 1.704570 18.949607 -0.219271 0.878943 -0.333783 2.828018 0.712174 -11.148365 2.807730 -0.276838 -28.407771 -3.359942 -0.740655 15.431264 -1.757650 -0.590636 9.443194 0.000000 0.000000 0.000000 131.456082 -52.959346 22.102772 26.298208 -37.501695 9.068613 -37.960305 -33.676539 11.540616 0.000000 0.000000 0.000000 -7.125000 0.000000 0.000000 -39.080982 13.933843 -39.610995 0.000000 0.000000 0.000000 -129.535160 -59.029664 -42.796144 -20.986238 -31.812300 -6.042695 42.370776 -8.339677 -13.266593 0.000000 0.000000 0.000000 7.125000 0.000000 0.000000 39.863157 10.000825 46.221271
1.322623 11.726174 -0.893165 75.066776 -87.208184 -63.729969 0.000000 0.000000 0.000000 -0.447095 1.393802 -76.408037 23.090964 19.769413 99.070849 2.425845 -6.429131 -28.180757 0.516154 -4.601453 -12.775852 0.000000 0.000000 0.000000 -3.429469 -2.220889 -74.839590 -25.102387 -19.364050 105.071884 -4.641474 2.001862 -40.499430 -0.674429 5.251487 -14.627261 -5.815576 1.702617 18.950146 -0.217118 0.876439 -0.335372 2.831429 0.711224 -11.150275 2.811350 -0.273730 -28.404685 -3.367503 -0.736158 15.429107 -1.760150 -0.589260 9.442057 0.000000 0.000000 0.000000 131.446003 -52.956577 22.096487 26.298546 -37.502025 9.068821 -37.968708 -33.685298 11.535160 0.000000 0.000000 0.000000 -7.125000 0.000000 0.000000 -39.084836 13.935071 -39.617259 0.000000 0.000000 0.000000 -129.543333 -59.033441 -42.797707 -20.986863 -31.813034 -6.043025 42.371627 -8.349795 -13.263454 0.000000 0.000000 0.000000 7.125000 0.000000 0.000000 39.863994 10.003108 46.220585
1.322792 11.726044 -0.893191 75.041366 -87.208818 -63.702636 0.000000 0.000000 0.000000 -0.446253 1.392843 -76.412811 23.091190 19.769378 99.071509 2.426023 -6.415063 -28.183339 0.521936 -4.625635 -12.844632 0.000000 0.000000 0.000000 -3.427937 -2.222004 -74.844586 -25.102782 -19.363951 105.073078 -4.641344 2.000646 -40.499121 -0.673760 5.248922 -14.619926 -5.816166 1.700664 18.950684 -0.214965 0.873934 -0.336960 2.834841 0.710273 -11.152184 2.814970 -0.270623 -28.401598 -3.375064 -0.731661 15.426950 -1.762651 -0.587884 9.440920 0.000000 0.000000 0.000000 131.435924 -52.953808 22.090202 26.298885 -37.502355 9.069029 -37.977112 -33.694057 11.529704 0.000000 0.000000 0.000000 -7.125000 0.000000 0.000000 -39.088690 13.936299 -39.623522 0.000000 0.000000 0.000000 -129.551507 -59.037217 -42.799269 -20.987488 -31.813767 -6.043355 42.372478 -8.359913 -13.260316 0.000000 0.000000 0.000000 7.125000 0.000000 0.000000 39.864832 10.005391 46.219900
1.322962 11.725914 -0.893217 75.015956 -87.209452 -63.675304 0.000000 0.000000 0.000000 -0.445411 1.391883 -76.417586 23.091416 19.769344 99.072169 2.426201 -6.400995 -28.185922 0.527717 -4.649816 -12.913413 0.000000 0.000000 0.000000 -3.426405 -2.223120 -74.849582 -25.103177 -19.363851 105.074271 -4.641214 1.999431 -40.498813 -0.673092 5.246356 -14.612590 -5.816756 1.698710 18.951222 -0.212812 0.871430 -0.338549 2.838253 0.709322 -11.154094 2.818590 -0.267515 -28.398512 -3.382626 -0.727164 15.424792 -1.765151 -0.586508 9.439782 0.000000 0.000000 0.000000 131.425845 -52.951038 22.083917 26.299224 -37.502684 9.069238 -37.985515 -33.702817 11.524248 0.000000 0.000000 0.000000 -7.125000 0.000000 0.000000 -39.092545 13.937528 -39.629785 0.000000 0.000000 0.000000 -129.559680 -59.040993 -42.800832 -20.988113 -31.814501 -6.043684 42.373328 -8.370030 -13.257178 0.000000 0.000000 0.000000 7.125000 0.000000 0.000000 39.865670 10.007674 46.219214
1.323131 11.725784 -0.893243 74.990547 -87.210085 -63.647971 0.000000 0.000000 0.000000 -0.444569 1.390924 -76.422360 23.091641 19.769309 99.072829 2.426379 -6.386927 -28.188505 0.533499 -4.673997 -12.982193 0.000000 0.000000 0.000000 -3.424873 -2.224235 -74.854578 -25.103572 -19.363751 105.075465 -4.641084 1.998216 -40.498505 -0.672424 5.243791 -14.605254 -5.817347 1.696757 18.951760 -0.210659 0.868925 -0.340138 2.841664 0.708372 -11.156004 2.822210 -0.264407 -28.395426 -3.390187 -0.722667 15.422635 -1.767651 -0.585132 9.438645 0.000000 0.000000 0.000000 131.415767 -52.948269 22.077632 26.299562 -37.503014 9.069446 -37.993918 -33.711576 11.518791 0.000000 0.000000 0.000000 -7.125000 0.000000 0.000000 -39.096399 13.938756 -39.636049 0.000000 0.000000 0.000000 -129.567853 -59.044770 -42.802394 -20.988738 -31.815235 -6.044014 42.374179 -8.380148 -13.254040 0.000000 0.000000 0.000000 7.125000 0.000000 0.000000 39.866508 10.009957 46.218528
1.323300 11.725654 -0.893269 74.965137 -87.210719 -63.620638 0.000000 0.000000 0.000000 -0.443727 1.389965 -76.427135 23.091867 19.769274 99.073488 2.426557 -6.372859 -28.191087 0.539281 -4.698178 -13.050974 0.000000 0.000000 0.000000 -3.423341 -2.225351 -74.859574 -25.103967 -19.363651 105.076659 -4.640954 1.997000 -40.498197 -0.671755 5.241226 -14.597919 -5.817937 1.694804 18.952298 -0.208506 0.866421 -0.341726 2.845076 0.707421 -11.157914 2.825830 -0.261299 -28.392340 -3.397748 -0.718171 15.420478 -1.770151 -0.583756 9.437508 0.000000 0.000000 0.000000 131.405688 -52.945500 22.071347 26.299901 -37.503344 9.069654 -38.002322 -33.720335 11.513335 0.000000 0.000000 0.000000 -7.125000 0.000000 0.000000 -39.100254 13.939984 -39.642312 0.000000 0.000000 0.000000 -129.576026 -59.048546 -42.803957 -20.989363 -31.815968 -6.044344 42.375030 -8.390266 -13.250902 0.000000 0.000000 0.000000 7.125000 0.000000 0.000000 39.867345 10.012240 46.217842
